<?xml version="1.0" encoding="UTF-8"?>
<svg version="1.1" viewBox="0 0 400 400" xmlns="http://www.w3.org/2000/svg">
<g>
<path d="m137.2 121.07c-0.77 0.342-1.67 0.781-2 0.976-0.33 0.194-1.035 0.539-1.566 0.767-1.192 0.511-12.131 11.211-53.091 51.928-18.7 18.59-18.611 18.47-18.876 25.202-0.241 6.111 1.567 10.387 6.403 15.143 4.187 4.119 4.627 4.557 8.751 8.711 2.184 2.2 4.451 4.45 5.038 5 1.222 1.146 20.55 20.224 38.197 37.705 6.611 6.548 12.767 12.333 13.682 12.855 7.761 4.434 16.988 2.221 21.513-5.16l1.716-2.8 0.143-4.6c0.143-4.567 0.134-4.619-1.22-7.279-1.137-2.235-7.246-9.521-7.982-9.521-0.103 0-6.736-6.479-14.74-14.399-8.003-7.919-18.71-18.494-23.793-23.5-9.474-9.331-10.388-10.399-9.987-11.663 0.128-0.402 9.084-9.441 19.904-20.085 33.45-32.909 34.942-34.444 36.497-37.53 3.398-6.749 1.69-14.368-4.266-19.028-1.543-1.207-3.101-2.196-3.464-2.197-0.362-2e-3 -1.175-0.272-1.805-0.6-1.549-0.808-7.171-0.761-9.054 0.075m118 1.207c-0.77 0.346-1.829 0.828-2.352 1.07-4.009 1.856-7.43 7.581-7.44 12.45-0.015 6.609-3.908 2.254 48.092 53.794 5.995 5.942 10.9 11.105 10.9 11.473 0 0.568-19.859 20.547-47.471 47.758-7.196 7.092-9.329 9.405-9.329 10.121 0 0.215-0.233 0.675-0.518 1.023-2.198 2.679-2.356 7.885-0.365 12.031 3.336 6.946 9.928 10.001 17.483 8.103 2.807-0.705 3.167-0.92 6.566-3.924 1.775-1.569 15.596-15.131 18.434-18.089 0.77-0.803 3.001-2.996 4.959-4.875 1.957-1.878 4.387-4.292 5.4-5.364 1.012-1.073 2.97-3.053 4.349-4.4 1.379-1.348 6.509-6.376 11.4-11.172 4.891-4.797 9.022-8.847 9.181-9 0.158-0.154 2.077-2.124 4.263-4.379 2.187-2.255 4.127-4.108 4.312-4.118 0.185-0.011 0.696-0.48 1.136-1.044s1.258-1.591 1.818-2.282c6.503-8.029 5.06-16.023-4.614-25.563-14.973-14.766-56.299-55.737-58.137-57.637-5.718-5.913-12.911-8.292-18.067-5.976" fill="#0f2e4c"/>
</g>
</svg>
